<?xml version="1.0"?>
<svg xmlns="http://www.w3.org/2000/svg" xmlns:xlink="http://www.w3.org/1999/xlink" version="1.1" id="Layer_1" x="0px" y="0px" viewBox="0 0 512 512" style="enable-background:new 0 0 512 512;" xml:space="preserve" width="512px" height="512px" class=""><g><path style="fill:#DABF8A" d="M487.967,374.756v-12.779c0-128.112-103.856-231.967-231.967-231.967  c-128.112,0-231.967,103.855-231.967,231.967v12.779H0v55.719h512v-55.719H487.967z" data-original="#B5CDDF" class="" data-old_color="#dabf8a"/><g>
	<rect y="374.755" style="fill:#D1AB62" width="511.999" height="55.713" data-original="#088690" class="active-path" data-old_color="#d1ab62"/>
	<circle style="fill:#D1AB62" cx="255.994" cy="105.767" r="24.243" data-original="#088690" class="active-path" data-old_color="#d1ab62"/>
</g><path style="fill:#EACC90" d="M255.999,130.009c-128.112,0-231.967,103.855-231.967,231.967v12.779H0v55.718h255.999V130.009z" data-original="#C9E5F9" class="" data-old_color="#eacc90"/><g>
	<polygon style="fill:#DABF8A" points="255.999,374.756 24.033,374.756 0,374.756 0,430.474 255.999,430.474  " data-original="#0BAEBC" class="" data-old_color="#dabf8a"/>
	<path style="fill:#DABF8A" d="M255.999,81.53c-13.387,0-24.24,10.852-24.24,24.24c0,13.386,10.852,24.241,24.24,24.241V81.53z" data-original="#0BAEBC" class="" data-old_color="#dabf8a"/>
</g></g> </svg>
