<svg xmlns="http://www.w3.org/2000/svg" viewBox="0 0 55 41"><defs><style>.cls-1{fill:#b7a274;}.cls-2{fill:#eace98;}.cls-3{fill:#dabf8a;}.cls-4{fill:#1a1a1a;}</style></defs><title>dinner</title><g id="icon"><circle class="cls-1" cx="27.5" cy="4.5" r="3.5"/><path class="cls-2" d="M27.51,7C10.2,7,1.32,19.67,3.1,35.5H27.63V7Z"/><path class="cls-3" d="M27.74,7h-.11V35.5H52.15C53.93,19.67,45.05,7,27.74,7Z"/><rect class="cls-1" x="1" y="35" width="53" height="5" rx="2.5" ry="2.5"/></g><g id="text"><path class="cls-4" d="M13.8,15c-.24-.61-.5-.78-1-.84v-.55H17v.55c-.77.06-1,.19-.75.79l2.09,5.37L20.38,15c.23-.57-.08-.73-.86-.79v-.55h2.81v.55a1,1,0,0,0-1,.83l-3,7.72H16.77Z"/><path class="cls-4" d="M22.48,22.19c.59-.07.73-.19.73-.58V18.53c0-.27-.09-.39-.33-.39h-.4v-.5l2-1.1h.73v5.07c0,.39.13.51.73.58v.54H22.48Zm2.93-7.53a1.1,1.1,0,0,1-1.16,1.07,1.08,1.08,0,1,1,0-2.16A1.1,1.1,0,0,1,25.41,14.66Z"/><path class="cls-4" d="M28.55,19.73c0,1.53.47,2.33,1.61,2.33a2.25,2.25,0,0,0,1.92-1.45l.71.41a3,3,0,0,1-2.87,1.91,3.11,3.11,0,0,1-3.42-3.2,3.07,3.07,0,0,1,3.21-3.19,2.63,2.63,0,0,1,2.9,2.85h-4A2.06,2.06,0,0,0,28.55,19.73Zm2.17-1.17c0-.77-.39-1.24-1-1.24s-1,.42-1.15,1.24Z"/><path class="cls-4" d="M36.74,22.73H35.33L33.62,18.2c-.19-.56-.31-.85-.8-.91v-.55h3.43v.55c-.62.06-.74.23-.5.91l.86,2.31.89-2.39c-.2-.5-.35-.77-.71-.83v-.55h3.38v.55c-.62.06-.78.22-.53.91l.85,2.28.85-2.28c.25-.68,0-.85-.59-.91v-.55h2.4v.55c-.45.06-.64.31-.86.91l-1.67,4.53H39.21L38,19.37Z"/><path class="cls-4" d="M19.61,29.18a4.39,4.39,0,0,1-4.72,4.75,4.4,4.4,0,0,1-4.73-4.75,4.4,4.4,0,0,1,4.73-4.74A4.39,4.39,0,0,1,19.61,29.18Zm-2.47,0c0-2.26-.48-3.91-2.25-3.91s-2.26,1.65-2.26,3.91.49,3.9,2.26,3.9S17.14,31.44,17.14,29.18Z"/><path class="cls-4" d="M23.67,28.94a.82.82,0,0,0-.68.36v3.31c0,.39.13.51.73.58v.54H20.27v-.54c.59-.07.73-.19.73-.58V29.53c0-.27-.09-.39-.33-.39h-.4v-.5l2-1.1H23v.77a2.25,2.25,0,0,1,1.6-.77,1,1,0,0,1,1.14,1,.93.93,0,0,1-.9,1C24,29.61,24.09,28.94,23.67,28.94Z"/><path class="cls-4" d="M31.86,24.44h.74v8.17c0,.39.13.51.72.58v.54a16.64,16.64,0,0,0-2.73.2v-.61a2.28,2.28,0,0,1-1.67.61c-1.63,0-2.77-1.25-2.77-3.2s1.14-3.19,2.77-3.19a2.32,2.32,0,0,1,1.67.62V26.43c0-.28-.09-.39-.32-.39h-.39v-.51ZM30.59,29a1.14,1.14,0,0,0-1-.54c-1,0-1.37.73-1.37,2.26S28.61,33,29.57,33a1.14,1.14,0,0,0,1-.53Z"/><path class="cls-4" d="M35.94,30.73c0,1.53.46,2.33,1.61,2.33a2.25,2.25,0,0,0,1.91-1.45l.71.41a3,3,0,0,1-2.87,1.91,3.12,3.12,0,0,1-3.42-3.2,3.07,3.07,0,0,1,3.21-3.19A2.63,2.63,0,0,1,40,30.39H36C35.94,30.51,35.94,30.63,35.94,30.73Zm2.17-1.17c0-.77-.39-1.24-1-1.24s-1,.42-1.14,1.24Z"/><path class="cls-4" d="M44.09,28.94a.84.84,0,0,0-.68.36v3.31c0,.39.13.51.73.58v.54H40.69v-.54c.59-.07.73-.19.73-.58V29.53c0-.27-.09-.39-.32-.39h-.41v-.5l2-1.1h.73v.77a2.25,2.25,0,0,1,1.6-.77,1,1,0,0,1,1.14,1,.93.93,0,0,1-.89,1C44.46,29.61,44.52,28.94,44.09,28.94Z"/></g></svg>